<svg width="35" height="35" viewBox="0 0 35 35" fill="none" xmlns="http://www.w3.org/2000/svg">
<path d="M17.5 0C7.83611 0 0 7.83611 0 17.5C0 27.1639 7.83611 35 17.5 35C19.1139 35 20.4167 33.6972 20.4167 32.0833C20.4167 31.325 20.1347 30.6444 19.6583 30.1292C19.2014 29.6139 18.9292 28.9431 18.9292 28.1944C18.9292 26.5806 20.2319 25.2778 21.8458 25.2778H25.2778C30.6444 25.2778 35 20.9222 35 15.5556C35 6.96111 27.1639 0 17.5 0ZM6.80556 17.5C5.19167 17.5 3.88889 16.1972 3.88889 14.5833C3.88889 12.9694 5.19167 11.6667 6.80556 11.6667C8.41944 11.6667 9.72222 12.9694 9.72222 14.5833C9.72222 16.1972 8.41944 17.5 6.80556 17.5ZM12.6389 9.72222C11.025 9.72222 9.72222 8.41944 9.72222 6.80556C9.72222 5.19167 11.025 3.88889 12.6389 3.88889C14.2528 3.88889 15.5556 5.19167 15.5556 6.80556C15.5556 8.41944 14.2528 9.72222 12.6389 9.72222ZM22.3611 9.72222C20.7472 9.72222 19.4444 8.41944 19.4444 6.80556C19.4444 5.19167 20.7472 3.88889 22.3611 3.88889C23.975 3.88889 25.2778 5.19167 25.2778 6.80556C25.2778 8.41944 23.975 9.72222 22.3611 9.72222ZM28.1944 17.5C26.5806 17.5 25.2778 16.1972 25.2778 14.5833C25.2778 12.9694 26.5806 11.6667 28.1944 11.6667C29.8083 11.6667 31.1111 12.9694 31.1111 14.5833C31.1111 16.1972 29.8083 17.5 28.1944 17.5Z" fill="url(#paint0_linear_2100_9504)"/>
<defs>
<linearGradient id="paint0_linear_2100_9504" x1="17.5" y1="0" x2="17.5" y2="35" gradientUnits="userSpaceOnUse">
<stop stop-color="#6ECBF5"/>
<stop offset="1" stop-color="#FF6FFF"/>
</linearGradient>
</defs>
</svg>
