<svg width="41" height="41" viewBox="0 0 41 41" fill="none" xmlns="http://www.w3.org/2000/svg">
<path d="M20.5 0C31.8218 0 41 9.17816 41 20.5C41 31.8218 31.8218 41 20.5 41C9.17816 41 0 31.8218 0 20.5C0 9.17816 9.17816 0 20.5 0ZM20.5 3C10.835 3 3 10.835 3 20.5C3 24.7335 4.50306 28.616 7.00488 31.6426C7.09956 28.3244 8.50996 25.1612 10.9541 22.8076C12.1599 21.6463 13.5707 20.728 15.1045 20.084C13.3222 18.6167 12.1924 16.4351 12.1924 14C12.1924 9.58179 15.9116 6 20.5 6C25.0884 6 28.8076 9.58179 28.8076 14C28.8076 16.4351 27.6778 18.6167 25.8955 20.084C27.4293 20.728 28.8401 21.6463 30.0459 22.8076C32.49 25.1612 33.8995 28.3244 33.9941 31.6426C36.4962 28.6159 38 24.7337 38 20.5C38 10.835 30.165 3 20.5 3Z" fill="url(#paint0_linear_2154_10067)"/>
<defs>
<linearGradient id="paint0_linear_2154_10067" x1="20.5" y1="0" x2="20.5" y2="41" gradientUnits="userSpaceOnUse">
<stop stop-color="#6ECBF5"/>
<stop offset="1" stop-color="#FF6FFF"/>
</linearGradient>
</defs>
</svg>
