<svg width="35" height="35" viewBox="0 0 35 35" fill="none" xmlns="http://www.w3.org/2000/svg">
<path d="M4.37493 19.6741L0 33.9018L6.67313 26.7743C6.62186 26.6033 6.56205 26.4323 6.56205 26.2442C6.56205 25.0389 7.54504 24.0553 8.74951 24.0553C9.95398 24.0553 10.937 25.0389 10.937 26.2442C10.937 27.4494 9.95398 28.433 8.74951 28.433C8.56152 28.433 8.39063 28.3732 8.21973 28.3219L1.09681 35L15.3122 30.6185L17.9181 23.8296L11.1561 17.068L4.37493 19.6741ZM25.2447 1.91557L12.7215 15.5563L19.4124 22.2509L33.0498 9.72641C38.8548 4.59146 30.3374 -3.79465 25.2447 1.91557Z" fill="url(#paint0_linear_2100_9506)"/>
<defs>
<linearGradient id="paint0_linear_2100_9506" x1="17.5" y1="0" x2="17.5" y2="35" gradientUnits="userSpaceOnUse">
<stop stop-color="#6ECBF5"/>
<stop offset="1" stop-color="#FF6FFF"/>
</linearGradient>
</defs>
</svg>
