<svg width="44" height="44" viewBox="0 0 44 44" fill="none" xmlns="http://www.w3.org/2000/svg">
<path d="M22.6372 3.5V6.08887C22.6373 8.62797 24.3277 10.557 26.2671 11.3359C26.3449 11.3672 26.424 11.3987 26.5034 11.4326V11.4336C28.2619 12.1846 30.4901 11.8936 31.9722 10.2959L34.0991 8.00098L35.0425 8.87695L33.2817 10.7773C31.5684 12.6246 31.4674 15.1748 32.3735 17.0869C32.4782 17.3078 32.5759 17.5326 32.6665 17.7607C33.4471 19.7258 35.3806 21.3925 37.9009 21.3994L40.4839 21.4053L40.481 22.6953L37.897 22.6885C35.5341 22.682 33.6788 24.137 32.8042 25.9346L32.6431 26.2979C32.503 26.6449 32.3456 26.9838 32.1733 27.3135L31.9966 27.6396C30.9559 29.4826 30.8757 32.0335 32.4526 33.998L34.0747 36.0195L33.0708 36.8262L31.0562 34.3154L30.9292 34.1641C29.6864 32.74 27.7979 32.2866 26.145 32.7324L25.8071 32.8379C24.0437 33.4592 22.6372 35.1491 22.6372 37.2764V40.5H21.3521V36.9482C21.352 35.0393 20.0937 33.4664 18.4204 32.9189H18.4214C18.2271 32.8553 18.0349 32.7866 17.8452 32.7129L17.8433 32.7119C15.8858 31.9525 13.3718 32.243 11.6743 34.0732L9.88916 35.9971L8.9458 35.1211L10.7075 33.2227C12.4208 31.3754 12.5218 28.8252 11.6157 26.9131C11.5634 26.8027 11.5132 26.6913 11.4644 26.5791L11.3228 26.2393L11.1636 25.875C10.2989 24.0725 8.45141 22.6081 6.08838 22.6016L3.50439 22.5938L3.50732 21.3037L6.09229 21.3115C8.61245 21.3184 10.5548 19.6627 11.3462 17.7021C11.5329 17.2395 11.7492 16.7914 11.9927 16.3604C13.0336 14.5174 13.1147 11.9657 11.5376 10.001L9.91455 7.97949L10.9175 7.17285L12.9341 9.68457C14.2552 11.3303 16.3993 11.7899 18.1821 11.1621C19.9464 10.5407 21.3521 8.85016 21.3521 6.72363V3.5H22.6372Z" stroke="url(#paint0_linear_2149_9816)" stroke-width="7"/>
<defs>
<linearGradient id="paint0_linear_2149_9816" x1="21.9946" y1="0" x2="21.9946" y2="44" gradientUnits="userSpaceOnUse">
<stop stop-color="#6ECBF5"/>
<stop offset="1" stop-color="#FF6FFF"/>
</linearGradient>
</defs>
</svg>
