<?xml version="1.0" encoding="UTF-8"?>
<svg id="Layer_1" xmlns="http://www.w3.org/2000/svg" xmlns:xlink="http://www.w3.org/1999/xlink" xmlns:svg="http://www.w3.org/2000/svg" xmlns:sodipodi="http://sodipodi.sourceforge.net/DTD/sodipodi-0.dtd" xmlns:inkscape="http://www.inkscape.org/namespaces/inkscape" version="1.1" viewBox="0 0 60 60">
  <!-- Generator: Adobe Illustrator 29.6.1, SVG Export Plug-In . SVG Version: 2.1.1 Build 9)  -->
  <defs>
    <style>
      .st0 {
        fill: url(#linear-gradient1);
      }

      .st1 {
        fill: url(#linear-gradient);
      }

      .st2 {
        fill: #3a37a5;
      }
    </style>
    <linearGradient id="linear-gradient" x1="76.2" y1="55.5" x2="76.2" y2="9.4" gradientTransform="translate(-46.2 62.4) scale(1 -1)" gradientUnits="userSpaceOnUse">
      <stop offset="0" stop-color="#f7d1d9"/>
      <stop offset=".1" stop-color="#f7c1d1"/>
      <stop offset=".4" stop-color="#f799bd"/>
      <stop offset=".7" stop-color="#f7599e"/>
      <stop offset="1" stop-color="#f72585"/>
    </linearGradient>
    <linearGradient id="linear-gradient1" x1="79.3" y1="3.6" x2="79.3" y2="61.2" gradientTransform="translate(-46.2 62.4) scale(1 -1)" gradientUnits="userSpaceOnUse">
      <stop offset="0" stop-color="#3c2bc9"/>
      <stop offset="1" stop-color="#4cc9f0"/>
    </linearGradient>
  </defs>
  <sodipodi:namedview id="namedview39" bordercolor="#000000" borderopacity="0.25" inkscape:current-layer="Layer_1" inkscape:cx="5.123878" inkscape:cy="24.009028" inkscape:deskcolor="#d1d1d1" inkscape:pagecheckerboard="0" inkscape:pageopacity="0.0" inkscape:showpageshadow="2" inkscape:window-height="449" inkscape:window-maximized="0" inkscape:window-width="1312" inkscape:window-x="0" inkscape:window-y="38" inkscape:zoom="3.4153819" pagecolor="#ffffff"/>
  <g id="g38">
    <polygon id="polygon21" class="st2" points="19.4 15.3 21.5 15.3 21.5 13.2 19.4 13.2 19.4 11.1 19.4 9 17.3 9 17.3 11.1 17.3 13.2 17.3 15.3 19.4 15.3"/>
    <polygon id="polygon22" class="st2" points="25.7 34.2 25.7 32.1 23.6 32.1 21.5 32.1 19.4 32.1 17.3 32.1 17.3 34.2 19.4 34.2 21.5 34.2 23.6 34.2 25.7 34.2"/>
    <polygon id="polygon23" class="st2" points="19.4 51 21.5 51 23.6 51 23.6 48.9 25.7 48.9 25.7 51 27.8 51 27.8 48.9 27.8 46.8 25.7 46.8 23.6 46.8 21.5 46.8 21.5 48.9 19.4 48.9 19.4 46.8 19.4 44.7 17.3 44.7 17.3 46.8 17.3 48.9 17.3 51 19.4 51"/>
    <rect id="rect23" class="st2" x="17.3" y="19.5" width="2.1" height="2.1"/>
    <polygon id="polygon24" class="st2" points="15.2 30 15.2 32.1 17.3 32.1 17.3 30 17.3 27.9 17.3 25.8 17.3 23.7 17.3 21.6 15.2 21.6 15.2 23.7 15.2 25.8 15.2 27.9 15.2 30"/>
    <rect id="rect24" class="st2" x="32" y="42.6" width="2.1" height="2.1"/>
    <polygon id="polygon25" class="st2" points="36.2 32.1 38.3 32.1 40.4 32.1 40.4 30 38.3 30 36.2 30 34.1 30 34.1 32.1 36.2 32.1"/>
    <polygon id="polygon26" class="st2" points="38.3 36.3 40.4 36.3 42.5 36.3 42.5 34.2 40.4 34.2 38.3 34.2 36.2 34.2 34.1 34.2 32 34.2 32 36.3 34.1 36.3 34.1 38.4 36.2 38.4 36.2 36.3 38.3 36.3"/>
    <rect id="rect26" class="st2" x="40.4" y="27.9" width="2.1" height="2.1"/>
    <polygon id="polygon27" class="st2" points="32 44.7 29.9 44.7 29.9 46.8 29.9 48.9 29.9 51 29.9 53.1 32 53.1 32 51 32 48.9 32 46.8 32 44.7"/>
    <polygon id="polygon28" class="st2" points="27.8 55.2 29.9 55.2 29.9 53.1 27.8 53.1 25.7 53.1 25.7 51 23.6 51 23.6 53.1 23.6 55.2 25.7 55.2 27.8 55.2"/>
    <polygon id="polygon29" class="st2" points="32 36.3 29.9 36.3 29.9 38.4 29.9 40.5 29.9 42.6 32 42.6 32 40.5 34.1 40.5 34.1 38.4 32 38.4 32 36.3"/>
    <rect id="rect29" class="st2" x="36.2" y="38.4" width="2.1" height="2.1"/>
    <rect id="rect30" class="st2" x="34.1" y="40.5" width="2.1" height="2.1"/>
    <polygon id="polygon30" class="st2" points="23.6 6.9 25.7 6.9 27.8 6.9 29.9 6.9 29.9 4.8 27.8 4.8 25.7 4.8 23.6 4.8 23.6 6.9"/>
    <polygon id="polygon31" class="st2" points="23.6 42.6 21.5 42.6 19.4 42.6 19.4 44.7 21.5 44.7 23.6 44.7 25.7 44.7 27.8 44.7 27.8 42.6 27.8 40.5 27.8 38.4 27.8 36.3 27.8 34.2 25.7 34.2 25.7 36.3 25.7 38.4 25.7 40.5 25.7 42.6 23.6 42.6"/>
    <polygon id="polygon32" class="st2" points="23.6 19.5 23.6 17.4 21.5 17.4 19.4 17.4 19.4 19.5 21.5 19.5 23.6 19.5"/>
    <rect id="rect32" class="st2" x="25.7" y="9" width="2.1" height="2.1"/>
    <polygon id="polygon33" class="st2" points="23.6 27.9 25.7 27.9 25.7 25.8 25.7 23.7 23.6 23.7 21.5 23.7 21.5 25.8 21.5 27.9 23.6 27.9"/>
    <rect id="rect33" class="st2" x="29.9" y="6.9" width="2.1" height="2.1"/>
    <polygon id="polygon34" class="st2" points="29.9 23.7 29.9 21.6 27.8 21.6 25.7 21.6 25.7 23.7 27.8 23.7 29.9 23.7"/>
    <polygon id="polygon35" class="st2" points="27.8 15.3 27.8 13.2 25.7 13.2 23.6 13.2 23.6 15.3 23.6 17.4 25.7 17.4 27.8 17.4 27.8 15.3"/>
    <polygon id="polygon36" class="st2" points="34.1 15.3 34.1 13.2 34.1 11.1 34.1 9 32 9 32 11.1 32 13.2 32 15.3 32 17.4 32 19.5 29.9 19.5 29.9 21.6 32 21.6 34.1 21.6 36.2 21.6 38.3 21.6 38.3 19.5 36.2 19.5 34.1 19.5 34.1 17.4 34.1 15.3"/>
    <rect id="rect36" class="st2" x="21.5" y="11.1" width="2.1" height="2.1"/>
    <polygon id="polygon37" class="st2" points="40.4 23.7 42.5 23.7 42.5 21.6 40.4 21.6 38.3 21.6 38.3 23.7 40.4 23.7"/>
    <polygon id="polygon38" class="st2" points="23.6 9 23.6 6.9 21.5 6.9 19.4 6.9 19.4 9 21.5 9 23.6 9"/>
  </g>
  <path id="path38" class="st1" d="M32,40.5h2.1v2.1h-2.1v-2.1ZM36.2,40.5v-2.1h-2.1v2.1h2.1ZM34.1,38.4v-2.1h-2.1v2.1h2.1ZM42.5,23.7v4.2h-2.1v2.1h-6.3v2.1h6.3v-2.1h2.1v4.2h-10.5v2.1h-2.1v6.3h2.1v2.1h-2.1v8.4h-4.2v-2.1h2.1v-4.2h-6.3v2.1h-2.1v-4.2h8.4v-10.5h-2.1v-2.1h-8.4v-10.5h2.1v-2.1h4.2v-2.1h4.2v-4.2h-4.2v-2.1h-2.1v2.1h-2.1v-4.2h4.2v-2.1h6.3v2.1h2.1v10.5h-2.1v2.1h-4.2v2.1h-4.2v4.2h4.2v-4.2h4.2v-2.1h8.4v2.1h4.2ZM27.8,11.1v-2.1h-2.1v2.1h2.1Z"/>
  <path id="path39" class="st0" d="M21.5,13.2h2.1v4.2h-2.1v-4.2ZM21.5,34.2v8.4h4.2v-8.4h-4.2ZM25.7,48.9h-2.1v2.1h2.1v-2.1ZM38.3,52.4h6.4V7.6h-6.4V1.2h-16.7v5.7h2.1v-2.1h6.3v2.1h2.1v2.1h2.1v10.5h4.2v2.1h4.2v14.7h-6.3v2.1h2.1v2.1h-2.1v2.1h-2.1v2.1h-2.1v8.4h-2.1v2.1h-6.3v-4.2h-2.1v7.8h16.7v-6.4Z"/>
</svg>