<svg width="1455" height="292" viewBox="0 0 1455 292" fill="none" xmlns="http://www.w3.org/2000/svg">
<path d="M0 0H1455V146H0V0Z" fill="#111111"/>
<path d="M0 146H1455V292H0V146Z" fill="#F0F0F0"/>
<path d="M183 248H213V277H183V248Z" fill="#111111"/>
<path d="M17 257H47V286H17V257Z" fill="#111111"/>
<path d="M422 132H452V161H422V132Z" fill="#111111"/>
<path d="M153 139H183V168H153V139Z" fill="#111111"/>
<path d="M332 137H362V166H332V137Z" fill="#111111"/>
<path d="M317 200H347V229H317V200Z" fill="#111111"/>
<path d="M1003 150H1033V179H1003V150Z" fill="#111111"/>
<path d="M1087 127H1117V156H1087V127Z" fill="#86C6FA"/>
<path d="M799 156H829V185H799V156Z" fill="#111111"/>
<path d="M1024 190H1054V219H1024V190Z" fill="#111111"/>
<path d="M487 185H517V214H487V185Z" fill="#111111"/>
<path d="M916 117H946V146H916V117Z" fill="#111111"/>
<path d="M645 146H675V175H645V146Z" fill="#111111"/>
<path d="M732 125H762V154H732V125Z" fill="#111111"/>
<path d="M401 229H431V258H401V229Z" fill="#111111"/>
<path d="M249 124H279V153H249V124Z" fill="#111111"/>
<path d="M380 215H410V244H380V215Z" fill="#111111"/>
<path d="M264 161H294V190H264V161Z" fill="#111111"/>
<path d="M516 150H546V179H516V150Z" fill="#111111"/>
<path d="M206 185H236V214H206V185Z" fill="#111111"/>
<path d="M133 150H163V179H133V150Z" fill="#111111"/>
<path d="M108 263H138V292H108V263Z" fill="#111111"/>
<path d="M86 208H116V237H86V208Z" fill="#111111"/>
<path d="M30 179H60V208H30V179Z" fill="#111111"/>
<path d="M0 137H30V166H0V137Z" fill="#111111"/>
<path d="M138 105H168V134H138V105Z" fill="#FFACAC"/>
<path d="M375 117H405V146H375V117Z" fill="#EDDCA6"/>
<path d="M546 97H576V126H546V97Z" fill="#AEDFAF"/>
<path d="M618 82H648V111H618V82Z" fill="#FFACAC"/>
<path d="M836 53H866V82H836V53Z" fill="#EDDCA6"/>
<path d="M958 116H988V145H958V116Z" fill="#EDDCA6"/>
<path d="M958 89H988V118H958V89Z" fill="#FFACAC"/>
<path d="M781 124H811V153H781V124Z" fill="#86C6FA"/>
<path d="M814 67H844V96H814V67Z" fill="#86C6FA"/>
<path d="M592 52H622V81H592V52Z" fill="#86C6FA"/>
<path d="M694 117H724V146H694V117Z" fill="#EDDCA6"/>
<path d="M747 13H777V42H747V13Z" fill="#AEDFAF"/>
<path d="M874 113H904V142H874V113Z" fill="#AEDFAF"/>
<path d="M364 95H394V124H364V95Z" fill="#86C6FA"/>
<path d="M38 32H68V61H38V32Z" fill="#EDDCA6"/>
<path d="M607 130H637V159H607V130Z" fill="#F0F0F0"/>
<path d="M469 110H499V139H469V110Z" fill="#FFACAC"/>
<path d="M302 125H332V154H302V125Z" fill="#AEDFAF"/>
<path d="M201 111H231V140H201V111Z" fill="#EDDCA6"/>
<path d="M101 89H131V118H101V89Z" fill="#86C6FA"/>
<path d="M60 118H90V147H60V118Z" fill="#AEDFAF"/>
<path d="M17 89H47V118H17V89Z" fill="#FFACAC"/>
</svg>
