<?xml version="1.0" encoding="UTF-8"?>
<svg id="Layer_1" data-name="Layer 1" xmlns="http://www.w3.org/2000/svg" xmlns:xlink="http://www.w3.org/1999/xlink" viewBox="0 0 286.83 145.79">
  <defs>
    <style>
      .cls-1 {
        fill: url(#linear-gradient-2);
      }

      .cls-2 {
        fill: #14067c;
      }

      .cls-3 {
        fill: url(#linear-gradient);
      }

      .cls-4 {
        fill: #0d0666;
      }
    </style>
    <linearGradient id="linear-gradient" x1="33.67" y1="108.6" x2="33.67" y2="0" gradientUnits="userSpaceOnUse">
      <stop offset="0" stop-color="#3c2bc9"/>
      <stop offset="1" stop-color="#4cc9f0"/>
    </linearGradient>
    <linearGradient id="linear-gradient-2" x1="27.72" y1="10.71" x2="27.72" y2="97.82" gradientUnits="userSpaceOnUse">
      <stop offset="0" stop-color="#f7d1d9"/>
      <stop offset=".13" stop-color="#f7c1d1"/>
      <stop offset=".39" stop-color="#f799bd"/>
      <stop offset=".74" stop-color="#f7599e"/>
      <stop offset="1" stop-color="#f72585"/>
    </linearGradient>
  </defs>
  <g>
    <path class="cls-2" d="M80.09,49.43h-5.49V0h32.95v5.49h5.49v21.97h-5.49v5.49h-21.97v16.48h-5.49ZM96.57,21.97h5.49v-10.99h-16.48v10.99h10.98Z"/>
    <path class="cls-2" d="M146.88,49.43h-27.46v-10.99h10.99V10.99h-10.99V0h32.95v10.99h-10.99v27.46h10.99v10.99h-5.49Z"/>
    <path class="cls-2" d="M191.7,49.43h-5.49v-10.99h-5.49v-5.49h-5.49v5.49h-5.49v10.99h-10.99v-16.48h5.49v-5.49h5.49v-5.49h-5.49v-5.49h-5.49V0h10.99v10.99h5.49v5.49h5.49v-5.49h5.49V0h10.98v16.48h-5.49v5.49h-5.49v5.49h5.49v5.49h5.49v16.48h-5.49Z"/>
    <path class="cls-2" d="M236.52,49.43h-32.96V0h38.45v10.99h-27.46v5.49h21.97v10.98h-21.97v10.99h27.46v10.99h-5.49Z"/>
    <path class="cls-2" d="M281.33,49.43h-32.96V0h10.99v38.45h27.46v10.99h-5.49Z"/>
    <path class="cls-2" d="M101.37,108.45h-21.41v-5.35h-5.35v-37.48h5.35v-5.35h26.77v5.35h5.35v10.71h-10.71v-5.35h-16.06v26.77h16.06v-5.35h-10.71v-10.71h21.42v21.41h-5.35v5.35h-5.35Z"/>
    <path class="cls-2" d="M150.41,108.45h-5.35v-16.06h-16.06v16.06h-10.71v-37.48h5.35v-5.35h5.35v-5.35h16.06v5.35h5.35v5.35h5.35v37.48h-5.35ZM139.7,81.69h5.35v-5.35h-5.35v-5.35h-5.35v5.35h-5.35v5.35h10.71Z"/>
    <path class="cls-2" d="M178.04,92.39v-5.35h-5.35v21.42h-10.71v-48.18h5.35v5.35h5.35v5.35h5.35v5.35h5.35v-5.35h5.35v-5.35h5.35v-5.35h5.35v48.18h-10.71v-21.42h-5.35v5.35h-5.35Z"/>
    <path class="cls-2" d="M237.79,108.45h-32.12v-48.18h37.48v10.71h-26.77v5.35h21.42v10.71h-21.42v10.71h26.77v10.71h-5.35Z"/>
    <path class="cls-2" d="M276.12,108.45h-21.42v-5.35h-5.35v-10.71h10.71v5.35h16.06v-5.35h-10.71v-5.35h-10.71v-5.35h-5.35v-16.06h5.35v-5.35h26.77v5.35h5.35v10.71h-10.71v-5.35h-16.06v5.35h10.71v5.35h10.71v5.35h5.35v16.06h-5.35v5.35h-5.35Z"/>
  </g>
  <g>
    <polygon class="cls-2" points="3.96 18.67 3.96 22.63 3.96 26.58 7.92 26.58 11.88 26.58 11.88 22.63 7.92 22.63 7.92 18.67 7.92 14.71 3.96 14.71 3.96 18.67"/>
    <polygon class="cls-2" points="7.92 62.22 11.88 62.22 15.84 62.22 19.8 62.22 19.8 58.26 15.84 58.26 11.88 58.26 7.92 58.26 3.96 58.26 3.96 62.22 7.92 62.22"/>
    <polygon class="cls-2" points="3.96 85.98 3.96 89.94 3.96 93.9 7.92 93.9 11.88 93.9 15.84 93.9 15.84 89.94 19.8 89.94 19.8 93.9 23.76 93.9 23.76 89.94 23.76 85.98 19.8 85.98 15.84 85.98 11.88 85.98 11.88 89.94 7.92 89.94 7.92 85.98 7.92 82.02 3.96 82.02 3.96 85.98"/>
    <rect class="cls-2" x="3.96" y="34.5" width="3.96" height="3.96"/>
    <polygon class="cls-2" points="0 42.42 0 46.38 0 50.34 0 54.3 0 58.26 3.96 58.26 3.96 54.3 3.96 50.34 3.96 46.38 3.96 42.42 3.96 38.46 0 38.46 0 42.42"/>
    <rect class="cls-2" x="31.68" y="78.06" width="3.96" height="3.96"/>
    <polygon class="cls-2" points="39.59 54.3 35.63 54.3 35.63 58.26 39.59 58.26 43.55 58.26 47.51 58.26 47.51 54.3 43.55 54.3 39.59 54.3"/>
    <polygon class="cls-2" points="35.63 70.14 39.59 70.14 39.59 66.18 43.55 66.18 47.51 66.18 51.47 66.18 51.47 62.22 47.51 62.22 43.55 62.22 39.59 62.22 35.63 62.22 31.68 62.22 31.68 66.18 35.63 66.18 35.63 70.14"/>
    <rect class="cls-2" x="47.51" y="50.34" width="3.96" height="3.96"/>
    <polygon class="cls-2" points="31.68 93.9 31.68 89.94 31.68 85.98 31.68 82.02 27.72 82.02 27.72 85.98 27.72 89.94 27.72 93.9 27.72 97.85 31.68 97.85 31.68 93.9"/>
    <polygon class="cls-2" points="15.84 97.85 15.84 101.81 19.8 101.81 23.76 101.81 27.72 101.81 27.72 97.85 23.76 97.85 19.8 97.85 19.8 93.9 15.84 93.9 15.84 97.85"/>
    <polygon class="cls-2" points="35.63 74.1 35.63 70.14 31.68 70.14 31.68 66.18 27.72 66.18 27.72 70.14 27.72 74.1 27.72 78.06 31.68 78.06 31.68 74.1 35.63 74.1"/>
    <rect class="cls-2" x="39.59" y="70.14" width="3.96" height="3.96"/>
    <rect class="cls-2" x="35.63" y="74.1" width="3.96" height="3.96"/>
    <polygon class="cls-2" points="23.76 6.79 19.8 6.79 15.84 6.79 15.84 10.75 19.8 10.75 23.76 10.75 27.72 10.75 27.72 6.79 23.76 6.79"/>
    <polygon class="cls-2" points="19.8 70.14 19.8 74.1 19.8 78.06 15.84 78.06 11.88 78.06 7.92 78.06 7.92 82.02 11.88 82.02 15.84 82.02 19.8 82.02 23.76 82.02 23.76 78.06 23.76 74.1 23.76 70.14 23.76 66.18 23.76 62.22 19.8 62.22 19.8 66.18 19.8 70.14"/>
    <polygon class="cls-2" points="7.92 30.54 7.92 34.5 11.88 34.5 15.84 34.5 15.84 30.54 11.88 30.54 7.92 30.54"/>
    <rect class="cls-2" x="19.8" y="14.71" width="3.96" height="3.96"/>
    <polygon class="cls-2" points="11.88 42.42 11.88 46.38 11.88 50.34 15.84 50.34 19.8 50.34 19.8 46.38 19.8 42.42 15.84 42.42 11.88 42.42"/>
    <rect class="cls-2" x="27.72" y="10.75" width="3.96" height="3.96"/>
    <polygon class="cls-2" points="19.8 38.46 19.8 42.42 23.76 42.42 27.72 42.42 27.72 38.46 23.76 38.46 19.8 38.46"/>
    <polygon class="cls-2" points="15.84 30.54 19.8 30.54 23.76 30.54 23.76 26.58 23.76 22.63 19.8 22.63 15.84 22.63 15.84 26.58 15.84 30.54"/>
    <polygon class="cls-2" points="39.59 34.5 35.63 34.5 35.63 30.54 35.63 26.58 35.63 22.63 35.63 18.67 35.63 14.71 31.68 14.71 31.68 18.67 31.68 22.63 31.68 26.58 31.68 30.54 31.68 34.5 27.72 34.5 27.72 38.46 31.68 38.46 35.63 38.46 39.59 38.46 43.55 38.46 43.55 34.5 39.59 34.5"/>
    <rect class="cls-2" x="11.88" y="18.67" width="3.96" height="3.96"/>
    <polygon class="cls-2" points="47.51 38.46 43.55 38.46 43.55 42.42 47.51 42.42 51.47 42.42 51.47 38.46 47.51 38.46"/>
    <polygon class="cls-2" points="7.92 10.75 7.92 14.71 11.88 14.71 15.84 14.71 15.84 10.75 11.88 10.75 7.92 10.75"/>
  </g>
  <path class="cls-3" d="M19.8,93.9h-3.96v-3.96h3.96v3.96ZM15.84,30.54v-7.92h-3.96v3.96h0v3.96h0,3.96ZM15.84,78.06h3.96v-15.84h-7.92,0v15.84h0,3.96ZM50.1,103.25h5.35V5.35h-5.35V0H11.88v10.75h0,3.96v-3.96h11.88v3.96h3.96v3.96h3.96v19.8h7.92v3.96h7.92v27.72h-11.88v3.96h3.96v3.96h-3.96v3.96h-3.96v3.96h-3.96v15.84h-3.96v3.96h-11.88v-7.92h-3.96,0v14.71h38.22v-5.35Z"/>
  <g>
    <path class="cls-4" d="M169.22,127.55c3.37-.05,5.69.89,6.96,2.81.17.26.31.53.4.81.1.28.19.58.27.91.04.13.05.28.04.45,0,.17-.05.3-.12.38-.09.1-.21.16-.36.18s-.33.04-.52.04h-2.11c-.16,0-.29-.02-.39-.05-.21-.08-.34-.21-.39-.39-.05-.18-.12-.36-.21-.54-.07-.16-.17-.33-.29-.51-.12-.18-.25-.32-.39-.42-.24-.16-.48-.3-.7-.42-.21-.08-.47-.15-.77-.21-.3-.06-.62-.09-.94-.11-.32-.02-.64,0-.95.02-.31.03-.59.1-.83.2-.4.16-.71.35-.92.58-.22.22-.37.55-.46.99-.03.11-.04.24-.03.38.02.14.04.25.08.33.14.34.33.58.59.72.25.14.55.27.9.4.19.08.39.14.59.18.2.04.4.09.61.16.47.15.95.27,1.45.38.49.11.99.22,1.47.36.09.03.17.05.26.05s.17.02.26.05c.35.11.71.22,1.08.32.37.1.71.24,1,.42.47.28.87.56,1.21.83.34.28.66.64.95,1.08.09.13.16.28.22.44.06.16.13.33.2.49.02.05.03.09.03.13s0,.08.03.11c.07.26.1.59.1.98.03.08.03.16,0,.25v.44c-.04.18-.07.35-.09.51-.03.16-.07.33-.12.49-.1.29-.22.56-.34.81-.12.24-.27.48-.44.71-.07.08-.14.15-.21.21s-.13.13-.18.21c-.09.1-.18.19-.29.28s-.22.18-.34.26c-.09.07-.18.13-.27.2s-.2.13-.3.2c-.29.18-.6.33-.92.44-.32.11-.66.23-1,.34-.24.08-.5.13-.76.16s-.52.06-.78.11c-.12.03-.24.04-.35.04-.11,0-.22,0-.33.04h-.21s-.08,0-.14-.01c-.06,0-.11,0-.14.01-.09.02-.23.02-.44.02s-.36,0-.44-.02h-.26c-.12-.03-.25-.05-.38-.04-.13,0-.25,0-.35-.04-.09,0-.17,0-.23-.01-.07,0-.15-.02-.23-.04-.21-.05-.43-.09-.65-.12-.23-.03-.43-.08-.63-.15-.85-.26-1.6-.59-2.24-.99-.64-.4-1.18-.93-1.61-1.58-.28-.39-.5-.86-.65-1.4-.04-.1-.06-.2-.07-.29,0-.1-.03-.2-.06-.32-.04-.13-.06-.29-.08-.48-.02-.19.02-.33.1-.43.09-.13.21-.21.38-.23s.35-.04.56-.04h2.08c.16,0,.29.02.42.07.19.08.3.22.34.4.03.19.09.38.18.58.07.2.16.38.26.54.1.16.22.32.34.47.09.1.18.19.29.27.1.08.21.16.31.22.38.23.85.42,1.41.56.12.03.24.05.35.05s.24.02.38.05h.13c.14.03.33.05.57.05s.43-.02.57-.05c.05-.02.14-.02.26-.02.09-.02.18-.03.27-.04.1,0,.19-.03.27-.06.59-.15,1.06-.34,1.41-.59.35-.25.59-.65.73-1.22.03-.11.04-.24.01-.39-.03-.15-.06-.26-.09-.34-.17-.44-.47-.78-.89-1.03-.05-.03-.15-.08-.29-.15-.26-.15-.55-.27-.87-.36-.32-.09-.64-.18-.95-.28-.12-.03-.24-.06-.35-.09s-.24-.05-.38-.09c-.28-.08-.56-.15-.85-.21-.29-.06-.56-.13-.82-.21-.09-.03-.16-.05-.21-.05s-.11-.02-.18-.05c-.14-.03-.26-.07-.38-.1-.11-.03-.24-.06-.38-.1-.4-.13-.78-.26-1.15-.4-.36-.14-.7-.3-1.02-.48-.4-.25-.77-.53-1.09-.86-.33-.33-.59-.7-.78-1.13-.07-.15-.12-.3-.16-.45-.04-.15-.08-.32-.13-.5-.04-.15-.06-.36-.08-.64-.02-.28,0-.51.03-.69.02-.06.03-.16.03-.29.05-.18.1-.35.13-.51.03-.16.09-.33.16-.49.26-.57.59-1.06,1-1.46s.88-.76,1.42-1.09c.35-.2.72-.35,1.12-.46.4-.11.83-.22,1.28-.32.17-.03.34-.05.51-.06.17,0,.33-.03.51-.06.05-.02.13-.02.25,0,.11.02.19,0,.22-.02Z"/>
    <path class="cls-4" d="M197.57,127.92c.23,0,.45,0,.66.01.22,0,.39.05.53.14.05.03.09.09.12.16.03.07.05.15.07.23v.12c.02.07.03.14.03.22v1.2c0,.11,0,.22.01.33,0,.11,0,.21-.04.31-.09.28-.26.42-.52.44s-.57.02-.94.02h-2.66c-.35,0-.65.01-.9.04s-.42.18-.51.45c-.02.08-.02.16,0,.22s0,.14-.03.22c-.02.1-.02.21-.01.33,0,.12.01.23.01.33v11.53c0,.26-.01.49-.04.67-.03.19-.14.32-.33.4-.12.03-.26.05-.42.05h-2.22c-.19,0-.37,0-.53-.02-.17-.02-.29-.07-.38-.17-.09-.13-.13-.3-.13-.5v-11.96c0-.11,0-.23.01-.35,0-.12,0-.23-.04-.33-.02-.08-.02-.15,0-.22s0-.13-.03-.2c-.09-.28-.26-.43-.53-.45-.27-.02-.59-.04-.95-.04h-2.42c-.19,0-.4,0-.64.01-.23,0-.42,0-.56-.04-.14-.05-.24-.12-.31-.22-.05-.08-.08-.19-.09-.32,0-.13-.01-.26-.01-.39v-1.2c0-.21.01-.4.04-.56.03-.16.11-.29.25-.37.05-.03.15-.07.29-.1h13.21Z"/>
    <path class="cls-4" d="M206.98,127.9h2.21c.19,0,.38,0,.56.02.18.02.32.07.4.17.09.13.13.3.14.5,0,.2.01.41.01.62v8.37c0,.07,0,.13-.01.21,0,.07,0,.14.01.21v.39c0,.15,0,.3-.01.47,0,.16,0,.31.04.44,0,.11,0,.2.03.27.03.18.07.36.09.54.03.18.07.36.14.54.19.42.44.78.74,1.05.3.28.71.5,1.21.66.14.03.28.06.42.07.14.02.28.04.42.07.09.03.17.05.23.04.07,0,.15,0,.23.01.07.02.18.02.34.01s.26-.02.31-.04h.39c.14-.03.28-.06.42-.07.14-.02.27-.04.39-.07.24-.05.43-.11.57-.17.31-.13.59-.31.82-.53.23-.22.42-.47.56-.75.19-.42.3-.93.34-1.51.03-.58.05-1.18.05-1.8v-8.15c0-.23,0-.48-.01-.76s.04-.48.14-.61c.09-.1.21-.16.36-.18s.33-.04.52-.04h1.67c.14,0,.27,0,.4-.01.13,0,.26,0,.38.04.24.05.4.13.47.24.09.13.13.31.12.55,0,.24-.01.45-.01.65v8.22c0,.62,0,1.22-.03,1.81-.02.59-.1,1.12-.23,1.59-.24.77-.55,1.43-.93,1.99-.37.56-.86,1.04-1.47,1.43-.54.36-1.17.65-1.9.88-.16.05-.32.09-.48.12-.17.03-.33.06-.48.1-.1.03-.2.05-.3.05s-.2.02-.3.05c-.21.03-.44.06-.7.07-.26.02-.51.02-.75.02-1.65.02-3.06-.18-4.22-.58-1.16-.4-2.08-1.05-2.74-1.95-.23-.29-.41-.6-.56-.92-.15-.32-.28-.66-.4-1.04-.03-.08-.05-.15-.05-.21s-.02-.13-.05-.21c-.14-.46-.21-.97-.21-1.54v-10.73c0-.16.03-.28.08-.38.1-.11.24-.2.42-.24h.1s.07,0,.1-.02Z"/>
    <path class="cls-4" d="M247.28,136.07s0,.11.01.2.01.17.01.27,0,.19-.01.27c0,.08-.01.14-.01.17,0,.11,0,.22-.01.33,0,.11-.01.21-.01.31-.04.08-.05.16-.04.24s0,.16-.01.24c-.04.18-.06.36-.08.54s-.05.36-.1.54c-.09.28-.17.54-.23.8-.07.25-.16.5-.26.75-.29.69-.66,1.31-1.09,1.86-.44.56-.96,1.03-1.56,1.42-.35.23-.71.42-1.08.59-.37.16-.78.31-1.21.44-.17.05-.35.09-.53.11s-.37.06-.56.11c-.09.02-.17.02-.25.02s-.16,0-.25.02c-.07.02-.14.02-.21.01s-.15,0-.23.01c-.04.02-.09.02-.16.01-.07,0-.12,0-.16.01-.14.03-.31.04-.52.02-.21-.02-.39-.02-.55-.02h-6.07c-.3,0-.54-.01-.74-.04s-.34-.13-.43-.33c-.05-.13-.07-.33-.06-.6,0-.27.01-.49.01-.67v-14.37c0-.2,0-.4-.01-.62,0-.22.03-.4.12-.53.07-.1.2-.18.39-.24.04-.02.07-.02.1-.01.03,0,.07,0,.1-.01h7.01c.1,0,.21,0,.33-.01.11,0,.21,0,.3.01h.31c.09.03.18.05.29.04.1,0,.2,0,.29.04.1.03.2.05.3.04.09,0,.2,0,.3.04.24.05.48.09.7.13.23.04.44.1.65.18.19.08.38.16.57.22.19.07.37.15.55.24.43.26.83.51,1.2.76l.16.15c.17.13.33.28.47.44l.23.2c.09.13.19.26.3.38.11.12.21.25.3.38.23.34.43.71.6,1.09.17.38.33.79.47,1.21.09.21.14.43.17.66.03.23.07.46.12.69,0,.08,0,.15.01.21,0,.06.01.12.01.18.03.1.05.2.04.32,0,.11,0,.21.04.29v.27ZM243.22,137.25c.03-.08.05-.21.05-.39s-.02-.31-.05-.39v-.47c-.04-.15-.06-.3-.07-.46,0-.16-.03-.31-.06-.44-.04-.08-.05-.16-.04-.23s0-.15-.04-.23c-.09-.26-.17-.51-.25-.75-.08-.24-.19-.46-.33-.67-.26-.39-.56-.73-.9-1.02s-.75-.53-1.24-.72c-.16-.05-.31-.09-.47-.14-.16-.04-.31-.08-.47-.11-.14-.02-.27-.03-.38-.04s-.24-.03-.38-.06c-.07-.02-.14-.02-.21-.01-.07,0-.13,0-.18-.01h-.57c-.09-.02-.18-.02-.29-.01-.1,0-.21.01-.31.01h-1.17s-.09.04-.17.02c-.08-.02-.14-.02-.2,0-.09.03-.17.06-.26.09s-.16.08-.21.16c-.07.08-.1.2-.1.34v.49c0,.21,0,.43-.01.66,0,.23-.01.46-.01.69v6.83c0,.1,0,.2-.01.32,0,.11,0,.21.04.29v.24c0,.11,0,.22.01.33,0,.11.03.2.06.28.1.2.3.3.6.31.3,0,.6.01.91.01.68,0,1.36,0,2.06-.01.69,0,1.28-.1,1.77-.28.64-.24,1.15-.57,1.52-.98.37-.41.69-.91.95-1.52.07-.13.12-.28.16-.44.04-.16.08-.33.13-.49v-.2c.03-.11.05-.24.05-.37s.02-.26.05-.39v-.24Z"/>
    <path class="cls-4" d="M256.06,127.94h2.24c.19,0,.37,0,.55.01.17,0,.3.07.39.18.09.11.13.26.14.44,0,.18.01.38.01.59v14.64c0,.21,0,.45.01.71s-.03.46-.12.59c-.07.11-.23.2-.47.27-.12.03-.25.04-.39.02-.14-.02-.28-.02-.42-.02h-1.54c-.19,0-.37,0-.53-.02-.17-.02-.3-.06-.4-.15-.09-.08-.14-.2-.16-.37-.02-.16-.03-.33-.03-.51v-14.64c0-.23,0-.5-.01-.81,0-.31.03-.53.12-.66.07-.1.18-.18.34-.24.05,0,.1,0,.14-.01.04,0,.08-.01.12-.01Z"/>
    <path class="cls-4" d="M285.72,136.05c.03.1.06.27.06.5,0,.24,0,.4-.04.5v.32c-.04.16-.05.33-.05.51s-.02.36-.05.54c-.04.11-.06.23-.08.34-.02.11-.04.23-.08.34-.09.29-.17.58-.25.86-.08.28-.18.55-.3.81-.52,1.14-1.22,2.09-2.11,2.85-.89.76-1.98,1.34-3.28,1.75-.19.06-.38.11-.57.15-.19.03-.38.06-.57.1-.09.03-.18.05-.27.05s-.19,0-.27.02l-.86.07c-.07.02-.19.02-.36.01s-.29-.02-.34-.04c-.09-.02-.17-.02-.25-.01s-.16,0-.25-.01h-.29c-.14-.03-.27-.05-.39-.06-.12,0-.25-.03-.39-.06-.14-.03-.28-.06-.42-.09s-.28-.05-.42-.09c-.19-.06-.39-.13-.59-.2-.2-.06-.4-.14-.59-.22-1.04-.42-1.92-.99-2.65-1.7-.72-.71-1.31-1.55-1.76-2.53-.1-.23-.19-.47-.26-.72-.07-.25-.15-.51-.23-.77-.03-.08-.05-.15-.05-.21s0-.12-.03-.18c-.03-.11-.06-.23-.08-.36-.02-.12-.04-.25-.08-.38-.02-.08-.02-.16-.01-.23s0-.14-.04-.21c-.02-.1-.02-.2,0-.31s.02-.21,0-.31c-.04-.08-.05-.21-.05-.38s.02-.3.05-.38c.02-.08.02-.16,0-.23-.02-.07-.02-.15,0-.23v-.15c.03-.11.05-.22.04-.33s0-.21.04-.31c.03-.08.05-.17.05-.26s.02-.17.05-.26c.09-.28.16-.55.21-.82.05-.27.13-.53.23-.8.14-.28.27-.55.39-.83.12-.28.27-.54.44-.78.52-.78,1.12-1.44,1.8-1.96.68-.52,1.5-.97,2.47-1.35.23-.08.46-.15.72-.2s.5-.11.74-.17c.09-.03.17-.05.25-.05s.16,0,.25-.02l.78-.07s.08-.02.14,0c.06.02.11.02.14,0,1.23-.03,2.3.09,3.2.36.9.27,1.71.64,2.42,1.11.23.15.46.31.7.5.24.19.44.38.6.58.09.08.17.17.26.26.09.09.17.18.23.26.19.26.38.53.57.8.19.27.36.56.5.87.1.23.2.45.27.66.08.21.16.44.25.69.05.16.1.33.13.5.04.17.08.35.13.53.03.11.05.22.05.33s.02.21.05.31c.03.1.05.2.04.31,0,.11,0,.2.01.28v.2ZM281.68,137.07c.03-.08.05-.2.05-.35s-.02-.27-.05-.36v-.42c-.02-.07-.02-.13-.01-.18s0-.12-.04-.18c-.04-.13-.06-.26-.07-.38,0-.12-.03-.24-.07-.35,0-.08-.02-.17-.05-.27-.05-.18-.1-.36-.16-.54-.05-.18-.12-.36-.21-.54-.38-.83-.93-1.51-1.65-2.02-.72-.51-1.72-.77-3.01-.77-.03.02-.07.02-.12.01-.04,0-.08,0-.12.01-.07.02-.14.02-.21.01-.07,0-.15,0-.23.04-.19.03-.38.07-.56.11s-.35.09-.51.16c-.73.29-1.31.7-1.73,1.22-.43.52-.77,1.15-1.03,1.88-.05.18-.09.35-.12.53-.03.17-.07.35-.12.53-.02.07-.03.13-.03.18s0,.12-.03.18c-.04.08-.04.17-.03.27s.02.19,0,.27c-.04.08-.06.23-.07.45,0,.22,0,.37.04.45v.27c.02.07.03.13.03.21s0,.14.03.21c0,.07,0,.13.01.18,0,.06.01.12.01.18.05.18.09.36.12.54.03.18.07.35.14.51.19.52.43,1.01.7,1.46.28.45.63.81,1.04,1.09.09.08.18.15.27.2.1.05.2.1.3.15.19.11.39.2.61.27.22.07.45.13.69.2.09.03.17.05.25.04s.16,0,.25.01c.1.03.21.05.31.05h.55c.09-.02.17-.02.23-.01.07,0,.15,0,.23-.04.17-.03.35-.06.52-.09s.34-.07.5-.13c.75-.28,1.33-.64,1.76-1.08s.79-1.01,1.08-1.71c.09-.18.15-.38.2-.59.04-.21.1-.42.17-.64l.08-.59c.02-.06.03-.13.03-.21v-.43Z"/>
  </g>
  <path class="cls-1" d="M31.68,74.07h3.96v3.96h-3.96v-3.96ZM39.59,74.07v-3.96h-3.96v3.96h3.96ZM35.63,70.11v-3.96h-3.96v3.96h3.96ZM51.47,42.39v7.92h-3.96v3.96h-11.88v3.96h11.88v-3.96h3.96v7.92h-19.8v3.96h-3.96v11.88h3.96v3.96h-3.96v15.84h-7.92v-3.96h3.96v-7.92h-11.88v3.96h-3.96v-7.92h15.84v-19.8h-3.96v-3.96H3.96v-19.8h3.96v-3.96h7.92v-3.96h7.92v-7.92h-7.92v-3.96h-3.96v3.96h-3.96v-7.92h7.92v-3.96h11.88v3.96h3.96v19.8h-3.96v3.96h-7.92v3.96h-7.92v7.92h7.92v-7.92h7.92v-3.96h15.84v3.96h7.92ZM23.76,18.63v-3.96h-3.96v3.96h3.96Z"/>
</svg>