<?xml version="1.0" encoding="UTF-8"?>
<svg id="Layer_1" data-name="Layer 1" xmlns="http://www.w3.org/2000/svg" xmlns:xlink="http://www.w3.org/1999/xlink" viewBox="0 0 511.71 104.18">
  <defs>
    <style>
      .cls-1 {
        fill: url(#linear-gradient-2);
      }

      .cls-2 {
        fill: #14067c;
      }

      .cls-3 {
        fill: url(#linear-gradient);
      }

      .cls-4 {
        fill: #0d0666;
      }
    </style>
    <linearGradient id="linear-gradient" x1="64.78" y1="5.68" x2="64.78" y2="51.85" gradientUnits="userSpaceOnUse">
      <stop offset="0" stop-color="#f7d1d9"/>
      <stop offset=".13" stop-color="#f7c1d1"/>
      <stop offset=".39" stop-color="#f799bd"/>
      <stop offset=".74" stop-color="#f7599e"/>
      <stop offset="1" stop-color="#f72585"/>
    </linearGradient>
    <linearGradient id="linear-gradient-2" x1="67.93" y1="57.56" x2="67.93" y2="0" gradientUnits="userSpaceOnUse">
      <stop offset="0" stop-color="#3c2bc9"/>
      <stop offset="1" stop-color="#4cc9f0"/>
    </linearGradient>
  </defs>
  <g>
    <path class="cls-2" d="M6.4,57.56H0V0h38.38v6.4h6.4v25.58h-6.4v6.4H12.79v19.19h-6.4ZM25.58,25.58h6.4v-12.79H12.79v12.79h12.79Z"/>
    <path class="cls-2" d="M125.14,57.56h-6.4v-12.79h-6.4v-6.4h-6.4v6.4h-6.4v12.79h-12.79v-19.19h6.4v-6.4h6.4v-6.39h-6.4v-6.4h-6.4V0h12.79v12.79h6.4v6.4h6.4v-6.4h6.4V0h12.79v19.19h-6.39v6.4h-6.4v6.39h6.4v6.4h6.39v19.19h-6.39Z"/>
    <path class="cls-2" d="M177.33,57.56h-38.38V0h44.77v12.79h-31.98v6.4h25.58v12.79h-25.58v12.79h31.98v12.79h-6.39Z"/>
    <path class="cls-2" d="M229.52,57.56h-38.38V0h12.79v44.77h31.98v12.79h-6.39Z"/>
  </g>
  <g>
    <path class="cls-2" d="M290.15,57.56h-25.58v-6.4h-6.4V6.4h6.4V0h31.98v6.4h6.4v12.79h-12.79v-6.4h-19.19v31.98h19.19v-6.4h-12.79v-12.79h25.58v25.58h-6.4v6.4h-6.4Z"/>
    <path class="cls-2" d="M348.74,57.56h-6.4v-19.19h-19.19v19.19h-12.79V12.79h6.4v-6.4h6.4V0h19.19v6.4h6.4v6.4h6.4v44.77h-6.4ZM335.95,25.58h6.4v-6.4h-6.4v-6.4h-6.4v6.4h-6.39v6.4h12.79Z"/>
    <path class="cls-2" d="M381.75,38.38v-6.4h-6.4v25.58h-12.79V0h6.4v6.4h6.4v6.4h6.4v6.4h6.4v-6.4h6.4v-6.4h6.4V0h6.39v57.56h-12.79v-25.58h-6.4v6.4h-6.4Z"/>
    <path class="cls-2" d="M453.12,57.56h-38.38V0h44.77v12.79h-31.98v6.4h25.58v12.79h-25.58v12.79h31.98v12.79h-6.39Z"/>
    <path class="cls-2" d="M498.92,57.56h-25.58v-6.4h-6.4v-12.79h12.79v6.4h19.19v-6.4h-12.79v-6.4h-12.79v-6.39h-6.4V6.4h6.4V0h31.98v6.4h6.39v12.79h-12.79v-6.4h-19.19v6.4h12.79v6.4h12.79v6.39h6.39v19.19h-6.39v6.4h-6.4Z"/>
  </g>
  <g>
    <path class="cls-4" d="M179.51,79.87c4.49-.07,7.58,1.19,9.27,3.75.23.35.41.71.54,1.08.13.37.25.77.36,1.21.05.17.06.37.05.6-.01.23-.06.4-.16.51-.12.13-.28.21-.49.24s-.44.05-.69.05h-2.81c-.21,0-.38-.02-.52-.07-.28-.11-.45-.28-.52-.52-.07-.24-.16-.48-.28-.72-.09-.22-.22-.45-.38-.69-.16-.24-.34-.42-.52-.55-.32-.22-.64-.4-.94-.55-.28-.11-.62-.2-1.02-.28-.41-.08-.82-.12-1.25-.15-.43-.02-.85-.01-1.27.03-.42.04-.79.13-1.11.26-.53.22-.94.47-1.23.77-.29.29-.49.73-.61,1.32-.05.15-.06.32-.03.51.02.19.06.33.1.44.18.46.45.78.78.96.33.18.73.36,1.2.54.25.11.51.19.78.24.27.05.54.13.82.21.62.2,1.27.36,1.93.51.66.14,1.31.3,1.96.47.11.04.23.07.35.07s.23.02.35.06c.46.15.94.29,1.44.42.5.13.94.32,1.34.55.62.37,1.16.74,1.61,1.11.45.37.87.85,1.27,1.44.11.17.21.37.29.59.08.22.17.44.26.65.02.07.04.13.04.18s.01.1.03.15c.09.35.14.78.14,1.3.05.11.05.22,0,.33v.59c-.05.24-.09.47-.12.69-.03.22-.09.44-.16.65-.14.39-.29.75-.45,1.08-.16.33-.36.64-.59.95-.09.11-.19.2-.28.28s-.17.17-.24.28c-.12.13-.24.26-.38.38s-.29.23-.45.34c-.12.09-.24.17-.36.26s-.26.17-.4.26c-.39.24-.8.44-1.23.59-.43.15-.87.3-1.34.46-.32.11-.66.18-1.01.21s-.69.08-1.04.15c-.16.04-.32.06-.47.05-.15-.01-.29,0-.43.05h-.28s-.11,0-.19-.02c-.08-.01-.15,0-.19.02-.12.02-.31.03-.59.03s-.47-.01-.59-.03h-.35c-.16-.04-.33-.06-.5-.05-.17.01-.33,0-.47-.05-.12,0-.22,0-.31-.02-.09-.01-.2-.03-.31-.05-.28-.07-.57-.12-.87-.16-.3-.04-.58-.11-.83-.2-1.13-.35-2.13-.79-2.99-1.32-.86-.53-1.57-1.23-2.15-2.1-.37-.52-.66-1.14-.87-1.86-.05-.13-.08-.26-.09-.39-.01-.13-.04-.27-.09-.42-.05-.17-.08-.39-.1-.64-.02-.25.02-.44.14-.57.12-.17.28-.28.5-.31s.47-.05.75-.05h2.78c.21,0,.39.03.56.1.25.11.4.29.45.54.05.25.13.51.24.77.09.26.21.5.35.72.14.22.29.42.45.62.11.13.24.25.38.36.14.11.28.21.42.29.51.3,1.13.55,1.88.75.16.04.32.07.47.07s.32.02.5.06h.17c.18.04.44.07.76.07s.58-.02.76-.07c.07-.02.18-.03.35-.03.12-.02.24-.04.36-.05.13-.01.25-.04.36-.08.79-.2,1.41-.46,1.88-.78.46-.33.79-.87.97-1.63.05-.15.05-.33.02-.52-.03-.2-.08-.35-.12-.46-.23-.59-.63-1.04-1.18-1.37-.07-.04-.2-.11-.38-.2-.35-.2-.73-.35-1.16-.47-.43-.12-.85-.24-1.27-.37-.16-.04-.32-.08-.47-.11s-.32-.07-.5-.11c-.37-.11-.75-.2-1.13-.28-.38-.08-.75-.17-1.09-.28-.12-.04-.21-.07-.28-.07s-.15-.02-.24-.06c-.19-.04-.35-.09-.5-.13-.15-.04-.32-.09-.5-.13-.53-.17-1.04-.35-1.53-.54-.49-.18-.94-.4-1.35-.64-.53-.33-1.02-.71-1.46-1.14-.44-.43-.79-.93-1.04-1.5-.09-.2-.16-.4-.21-.6-.05-.21-.1-.43-.17-.67-.05-.2-.08-.48-.1-.85-.02-.37-.01-.67.03-.91.02-.09.03-.22.03-.39.07-.24.13-.47.17-.69.05-.22.12-.43.21-.65.35-.76.79-1.41,1.34-1.94s1.17-1.02,1.89-1.45c.46-.26.96-.47,1.49-.62.53-.15,1.1-.29,1.7-.42.23-.04.46-.07.68-.08.22-.01.45-.04.68-.08.07-.02.18-.02.33,0,.15.02.25.01.29-.03Z"/>
    <path class="cls-4" d="M217.29,80.36c.3,0,.6,0,.89.02.29.01.53.07.71.18.07.04.12.11.16.21.04.1.06.2.09.31v.16c.02.09.03.19.03.29v1.6c0,.15,0,.3.02.44.01.14,0,.28-.05.41-.12.37-.35.57-.69.59s-.76.03-1.25.03h-3.54c-.46,0-.86.02-1.2.05s-.56.23-.68.6c-.02.11-.02.21,0,.29s.01.18-.03.29c-.02.13-.03.28-.02.44.01.16.02.31.02.44v15.37c0,.35-.02.65-.05.9-.04.25-.18.43-.43.54-.16.04-.35.07-.56.07h-2.95c-.25,0-.49-.01-.71-.03-.22-.02-.39-.1-.5-.23-.12-.17-.17-.4-.17-.67v-15.94c0-.15,0-.31.02-.47.01-.16,0-.31-.05-.44-.02-.11-.02-.21,0-.29s.01-.17-.03-.26c-.12-.37-.35-.57-.71-.6-.36-.03-.78-.05-1.27-.05h-3.23c-.26,0-.54,0-.85.02-.31.01-.56,0-.75-.05-.19-.07-.32-.16-.42-.29-.07-.11-.11-.25-.12-.42-.01-.17-.02-.35-.02-.52v-1.6c0-.28.02-.53.05-.75.03-.22.14-.38.33-.49.07-.04.2-.09.38-.13h17.61Z"/>
    <path class="cls-4" d="M229.83,80.33h2.95c.26,0,.5.01.75.03.24.02.42.1.54.23.11.17.18.4.19.67.01.27.02.55.02.83v11.16c0,.09,0,.18-.02.28-.01.1,0,.19.02.28v.52c0,.2,0,.4-.02.62-.01.22,0,.41.05.59,0,.15.01.27.03.36.05.24.09.48.12.72.03.24.1.48.19.72.25.57.58,1.03.99,1.4.4.37.94.66,1.61.88.19.04.37.08.56.1.18.02.37.05.56.1.12.04.22.06.31.05.09-.01.2,0,.31.02.09.02.24.03.45.02s.35-.03.42-.05h.52c.19-.04.37-.08.56-.1.18-.02.36-.05.52-.1.32-.07.58-.14.76-.23.42-.17.78-.41,1.09-.7.31-.29.56-.62.75-.99.25-.57.4-1.23.45-2.01.05-.77.07-1.57.07-2.4v-10.86c0-.3,0-.64-.02-1.01s.05-.64.19-.82c.12-.13.28-.21.49-.24s.44-.05.69-.05h2.22c.18,0,.36,0,.54-.02.17-.01.34,0,.5.05.32.07.53.17.62.33.12.17.17.42.16.73-.01.32-.02.6-.02.86v10.96c0,.83-.01,1.63-.03,2.41-.02.78-.13,1.49-.31,2.12-.32,1.02-.73,1.91-1.23,2.66-.5.75-1.15,1.39-1.96,1.91-.72.48-1.56.87-2.54,1.17-.21.07-.42.12-.64.16-.22.04-.43.09-.64.13-.14.04-.27.06-.4.06s-.26.02-.4.07c-.28.04-.59.08-.94.1-.35.02-.68.03-1.01.03-2.2.02-4.08-.23-5.63-.77-1.55-.53-2.77-1.4-3.65-2.59-.3-.39-.55-.8-.75-1.22-.2-.42-.38-.89-.54-1.39-.05-.11-.07-.2-.07-.28s-.02-.17-.07-.28c-.19-.61-.28-1.29-.28-2.06v-14.31c0-.21.03-.38.1-.51.14-.15.32-.26.56-.33h.14s.09-.01.14-.03Z"/>
    <path class="cls-4" d="M283.55,91.22c0,.07,0,.15.02.26s.02.23.02.36,0,.25-.02.36c-.01.11-.02.19-.02.23,0,.15,0,.3-.02.44-.01.14-.02.28-.02.41-.05.11-.06.22-.05.33s0,.22-.02.33c-.05.24-.08.48-.1.72s-.07.48-.14.72c-.12.37-.22.72-.31,1.06-.09.34-.21.67-.35,1-.39.91-.88,1.74-1.46,2.48-.58.74-1.27,1.37-2.08,1.89-.46.3-.94.57-1.44.78-.5.22-1.04.41-1.61.59-.23.07-.47.11-.71.15s-.49.08-.75.15c-.12.02-.23.03-.33.03s-.21.01-.33.03c-.09.02-.19.03-.28.02s-.2,0-.31.02c-.05.02-.12.03-.21.02-.09-.01-.16,0-.21.02-.19.04-.42.05-.69.03-.28-.02-.52-.03-.73-.03h-8.09c-.39,0-.72-.02-.99-.05s-.46-.18-.57-.44c-.07-.17-.1-.44-.09-.8.01-.36.02-.66.02-.9v-19.15c0-.26,0-.54-.02-.83-.01-.29.04-.53.16-.7.09-.13.27-.24.52-.33.05-.02.09-.03.14-.02.05.01.09,0,.14-.02h9.34c.14,0,.28,0,.43-.02.15-.01.28,0,.4.02h.42c.12.04.24.06.38.05.14-.01.27,0,.38.05.14.04.27.06.4.05.13-.01.26,0,.4.05.32.06.64.12.94.18.3.05.59.14.87.24.25.11.51.21.76.29.25.09.5.2.73.33.58.35,1.11.69,1.6,1.01l.21.2c.23.17.44.37.63.59l.31.26c.12.17.25.34.4.51.15.16.28.33.4.51.3.46.57.94.8,1.45.23.51.44,1.05.62,1.61.12.28.19.58.23.88.04.3.09.61.16.91,0,.11,0,.2.02.28.01.08.02.16.02.24.05.13.06.27.05.42-.01.15,0,.28.05.39v.36ZM278.14,92.79c.05-.11.07-.28.07-.52s-.02-.41-.07-.52v-.62c-.05-.2-.08-.4-.09-.62-.01-.22-.04-.41-.09-.59-.05-.11-.06-.21-.05-.31s0-.2-.05-.31c-.12-.35-.23-.68-.33-.99-.1-.32-.25-.61-.43-.9-.35-.52-.75-.97-1.2-1.35s-1-.7-1.65-.96c-.21-.07-.42-.12-.62-.18-.21-.05-.42-.1-.62-.15-.19-.02-.35-.04-.5-.05s-.32-.04-.5-.08c-.09-.02-.19-.03-.28-.02-.09.01-.17,0-.24-.02h-.76c-.12-.02-.24-.03-.38-.02-.14.01-.28.02-.42.02h-1.56s-.12.05-.23.03c-.1-.02-.19-.02-.26,0-.12.04-.23.08-.35.11s-.21.1-.28.21c-.09.11-.14.26-.14.46v.65c0,.28,0,.58-.02.88-.01.3-.02.61-.02.91v9.1c0,.13,0,.27-.02.42-.01.15,0,.28.05.39v.33c0,.15,0,.3.02.44.01.14.04.27.09.37.14.26.41.4.8.41.39.01.8.02,1.22.02.9,0,1.82,0,2.74-.02.92-.01,1.71-.14,2.36-.38.86-.33,1.53-.76,2.03-1.3.5-.54.92-1.22,1.27-2.02.09-.17.16-.37.21-.59.05-.22.1-.43.17-.65v-.26c.05-.15.07-.32.07-.49s.02-.35.07-.52v-.33Z"/>
    <path class="cls-4" d="M295.26,80.39h2.99c.25,0,.5,0,.73.02.23.01.4.09.52.24.12.15.18.35.19.59.01.24.02.5.02.78v19.51c0,.28,0,.6.02.95s-.04.61-.16.78c-.09.15-.3.27-.63.36-.16.04-.34.05-.52.03-.19-.02-.37-.03-.56-.03h-2.05c-.25,0-.49-.01-.71-.03-.22-.02-.4-.09-.54-.2-.12-.11-.19-.27-.21-.49-.02-.22-.04-.45-.04-.69v-19.51c0-.3,0-.66-.02-1.08-.01-.41.04-.71.16-.88.09-.13.24-.24.45-.33.07,0,.13,0,.19-.02.06-.01.11-.02.16-.02Z"/>
    <path class="cls-4" d="M334.78,91.19c.05.13.07.35.09.67.01.32,0,.54-.05.67v.42c-.05.22-.07.45-.07.69s-.02.48-.07.72c-.05.15-.08.3-.1.46-.02.15-.06.3-.1.46-.12.39-.23.77-.33,1.14-.1.37-.24.73-.4,1.08-.69,1.52-1.63,2.79-2.81,3.8-1.18,1.01-2.64,1.79-4.38,2.33-.25.09-.51.15-.76.2-.26.04-.51.09-.76.13-.12.04-.24.07-.36.07s-.25.01-.36.03l-1.15.1c-.09.02-.25.03-.49.02s-.38-.03-.45-.05c-.12-.02-.23-.03-.33-.02s-.21,0-.33-.02h-.38c-.19-.04-.36-.07-.52-.08-.16-.01-.34-.04-.52-.08-.19-.04-.37-.08-.56-.11s-.37-.07-.56-.11c-.25-.09-.51-.17-.78-.26-.27-.09-.53-.18-.78-.29-1.39-.57-2.57-1.32-3.53-2.27-.96-.95-1.74-2.07-2.34-3.38-.14-.3-.25-.62-.35-.96-.09-.34-.2-.68-.31-1.03-.05-.11-.07-.2-.07-.28s-.01-.16-.04-.24c-.05-.15-.08-.31-.1-.47-.02-.16-.06-.33-.1-.51-.02-.11-.03-.21-.02-.31s0-.19-.05-.28c-.02-.13-.02-.27,0-.41s.02-.28,0-.41c-.05-.11-.07-.28-.07-.51s.02-.4.07-.51c.02-.11.02-.21,0-.31-.02-.1-.02-.2,0-.31v-.2c.05-.15.06-.3.05-.44s0-.28.05-.41c.05-.11.07-.22.07-.34s.02-.23.07-.34c.12-.37.21-.73.28-1.09.07-.36.17-.71.31-1.06.19-.37.36-.74.52-1.11.16-.37.36-.72.59-1.04.69-1.04,1.49-1.91,2.4-2.61.9-.7,2-1.29,3.3-1.79.3-.11.62-.2.95-.26s.67-.14.99-.23c.12-.04.23-.07.33-.07s.21-.01.33-.03l1.04-.1s.11-.02.19,0c.08.02.14.02.19,0,1.64-.04,3.07.11,4.27.47,1.2.36,2.28.85,3.23,1.48.3.2.61.42.94.67.32.25.59.51.8.77.12.11.23.22.35.34.12.12.22.23.31.34.25.35.51.7.76,1.06.25.36.47.75.66,1.16.14.3.26.6.36.88.1.28.21.59.33.91.07.22.13.44.17.67.05.23.1.46.17.7.05.15.07.3.07.44s.02.28.07.41c.05.13.06.27.05.41-.01.14,0,.27.02.38v.26ZM329.4,92.56c.05-.11.07-.27.07-.47s-.02-.36-.07-.47v-.55c-.02-.09-.03-.17-.02-.24s0-.16-.05-.24c-.05-.17-.08-.34-.09-.51-.01-.16-.04-.32-.09-.47,0-.11-.02-.23-.07-.36-.07-.24-.14-.48-.21-.72-.07-.24-.16-.48-.28-.72-.51-1.11-1.24-2.01-2.21-2.69-.96-.68-2.3-1.03-4.01-1.03-.05.02-.1.03-.16.02-.06-.01-.11,0-.16.02-.09.02-.19.03-.28.02-.09-.01-.2,0-.31.05-.26.04-.5.09-.75.15s-.47.13-.68.21c-.97.39-1.74.94-2.31,1.63-.57.7-1.02,1.53-1.37,2.51-.07.24-.12.47-.16.7-.03.23-.09.46-.16.7-.02.09-.04.17-.04.24s-.01.16-.03.24c-.05.11-.06.23-.03.36s.02.25,0,.36c-.05.11-.08.31-.09.6-.01.29,0,.5.05.6v.36c.02.09.03.18.03.28s.01.19.03.28c0,.09,0,.17.02.24.01.08.02.16.02.24.07.24.12.48.16.72.03.24.1.47.19.68.26.7.57,1.34.94,1.94.37.6.83,1.08,1.39,1.45.11.11.24.2.36.26.13.07.26.13.4.2.25.15.53.27.82.36.29.09.6.17.92.26.12.04.23.06.33.05s.21,0,.33.02c.14.04.28.07.42.07h.73c.12-.02.22-.03.31-.02.09.01.2,0,.31-.05.23-.04.46-.08.69-.11s.45-.09.66-.18c.99-.37,1.78-.85,2.34-1.44s1.05-1.35,1.44-2.28c.12-.24.2-.5.26-.78.06-.28.13-.57.23-.85l.1-.78c.02-.09.03-.18.03-.28v-.57Z"/>
  </g>
  <g>
    <polygon class="cls-2" points="52.19 9.89 52.19 11.99 52.19 14.09 54.28 14.09 56.38 14.09 56.38 11.99 54.28 11.99 54.28 9.89 54.28 7.8 52.19 7.8 52.19 9.89"/>
    <polygon class="cls-2" points="54.28 32.98 56.38 32.98 58.48 32.98 60.58 32.98 60.58 30.88 58.48 30.88 56.38 30.88 54.28 30.88 52.19 30.88 52.19 32.98 54.28 32.98"/>
    <polygon class="cls-2" points="52.19 45.57 52.19 47.67 52.19 49.77 54.28 49.77 56.38 49.77 58.48 49.77 58.48 47.67 60.58 47.67 60.58 49.77 62.68 49.77 62.68 47.67 62.68 45.57 60.58 45.57 58.48 45.57 56.38 45.57 56.38 47.67 54.28 47.67 54.28 45.57 54.28 43.47 52.19 43.47 52.19 45.57"/>
    <rect class="cls-2" x="52.19" y="18.29" width="2.1" height="2.1"/>
    <polygon class="cls-2" points="50.09 22.49 50.09 24.58 50.09 26.68 50.09 28.78 50.09 30.88 52.19 30.88 52.19 28.78 52.19 26.68 52.19 24.58 52.19 22.49 52.19 20.39 50.09 20.39 50.09 22.49"/>
    <rect class="cls-2" x="66.88" y="41.37" width="2.1" height="2.1"/>
    <polygon class="cls-2" points="71.07 28.78 68.97 28.78 68.97 30.88 71.07 30.88 73.17 30.88 75.27 30.88 75.27 28.78 73.17 28.78 71.07 28.78"/>
    <polygon class="cls-2" points="68.97 37.18 71.07 37.18 71.07 35.08 73.17 35.08 75.27 35.08 77.37 35.08 77.37 32.98 75.27 32.98 73.17 32.98 71.07 32.98 68.97 32.98 66.88 32.98 66.88 35.08 68.97 35.08 68.97 37.18"/>
    <rect class="cls-2" x="75.27" y="26.68" width="2.1" height="2.1"/>
    <polygon class="cls-2" points="66.88 49.77 66.88 47.67 66.88 45.57 66.88 43.47 64.78 43.47 64.78 45.57 64.78 47.67 64.78 49.77 64.78 51.87 66.88 51.87 66.88 49.77"/>
    <polygon class="cls-2" points="58.48 51.87 58.48 53.97 60.58 53.97 62.68 53.97 64.78 53.97 64.78 51.87 62.68 51.87 60.58 51.87 60.58 49.77 58.48 49.77 58.48 51.87"/>
    <polygon class="cls-2" points="68.97 39.28 68.97 37.18 66.88 37.18 66.88 35.08 64.78 35.08 64.78 37.18 64.78 39.28 64.78 41.37 66.88 41.37 66.88 39.28 68.97 39.28"/>
    <rect class="cls-2" x="71.07" y="37.18" width="2.1" height="2.1"/>
    <rect class="cls-2" x="68.97" y="39.28" width="2.1" height="2.1"/>
    <polygon class="cls-2" points="62.68 3.6 60.58 3.6 58.48 3.6 58.48 5.7 60.58 5.7 62.68 5.7 64.78 5.7 64.78 3.6 62.68 3.6"/>
    <polygon class="cls-2" points="60.58 37.18 60.58 39.28 60.58 41.37 58.48 41.37 56.38 41.37 54.28 41.37 54.28 43.47 56.38 43.47 58.48 43.47 60.58 43.47 62.68 43.47 62.68 41.37 62.68 39.28 62.68 37.18 62.68 35.08 62.68 32.98 60.58 32.98 60.58 35.08 60.58 37.18"/>
    <polygon class="cls-2" points="54.28 16.19 54.28 18.29 56.38 18.29 58.48 18.29 58.48 16.19 56.38 16.19 54.28 16.19"/>
    <rect class="cls-2" x="60.58" y="7.8" width="2.1" height="2.1"/>
    <polygon class="cls-2" points="56.38 22.49 56.38 24.58 56.38 26.68 58.48 26.68 60.58 26.68 60.58 24.58 60.58 22.49 58.48 22.49 56.38 22.49"/>
    <rect class="cls-2" x="64.78" y="5.7" width="2.1" height="2.1"/>
    <polygon class="cls-2" points="60.58 20.39 60.58 22.49 62.68 22.49 64.78 22.49 64.78 20.39 62.68 20.39 60.58 20.39"/>
    <polygon class="cls-2" points="58.48 16.19 60.58 16.19 62.68 16.19 62.68 14.09 62.68 11.99 60.58 11.99 58.48 11.99 58.48 14.09 58.48 16.19"/>
    <polygon class="cls-2" points="71.07 18.29 68.97 18.29 68.97 16.19 68.97 14.09 68.97 11.99 68.97 9.89 68.97 7.8 66.88 7.8 66.88 9.89 66.88 11.99 66.88 14.09 66.88 16.19 66.88 18.29 64.78 18.29 64.78 20.39 66.88 20.39 68.97 20.39 71.07 20.39 73.17 20.39 73.17 18.29 71.07 18.29"/>
    <rect class="cls-2" x="56.38" y="9.89" width="2.1" height="2.1"/>
    <polygon class="cls-2" points="75.27 20.39 73.17 20.39 73.17 22.49 75.27 22.49 77.37 22.49 77.37 20.39 75.27 20.39"/>
    <polygon class="cls-2" points="54.28 5.7 54.28 7.8 56.38 7.8 58.48 7.8 58.48 5.7 56.38 5.7 54.28 5.7"/>
  </g>
  <path class="cls-3" d="M66.88,39.26h2.1v2.1h-2.1v-2.1ZM71.07,39.26v-2.1h-2.1v2.1h2.1ZM68.97,37.16v-2.1h-2.1v2.1h2.1ZM77.37,22.47v4.2h-2.1v2.1h-6.3v2.1h6.3v-2.1h2.1v4.2h-10.49v2.1h-2.1v6.3h2.1v2.1h-2.1v8.39h-4.2v-2.1h2.1v-4.2h-6.3v2.1h-2.1v-4.2h8.39v-10.49h-2.1v-2.1h-8.39v-10.49h2.1v-2.1h4.2v-2.1h4.2v-4.2h-4.2v-2.1h-2.1v2.1h-2.1v-4.2h4.2v-2.1h6.3v2.1h2.1v10.49h-2.1v2.1h-4.2v2.1h-4.2v4.2h4.2v-4.2h4.2v-2.1h8.39v2.1h4.2ZM62.68,9.88v-2.1h-2.1v2.1h2.1Z"/>
  <path class="cls-1" d="M56.38,11.99h2.1v4.2h-2.1v-4.2ZM56.38,32.98v8.39h4.2v-8.39h-4.2ZM60.58,47.67h-2.1v2.1h2.1v-2.1ZM73.12,51.17h6.36V6.4h-6.36V0h-16.74v5.7h2.1v-2.1h6.3v2.1h2.1v2.1h2.1v10.49h4.2v2.1h4.2v14.69h-6.3v2.1h2.1v2.1h-2.1v2.1h-2.1v2.1h-2.1v8.39h-2.1v2.1h-6.3v-4.2h-2.1v7.8h16.74v-6.4Z"/>
</svg>